<svg xmlns="http://www.w3.org/2000/svg" width="24" height="24" fill="none" viewBox="0 0 24 24" id="verified"><g clip-path="url(#clip0_343_1428)"><path fill="#3747D6" d="M13.548 1.31153C12.7479 0.334164 11.2532 0.334167 10.453 1.31153L9.46119 2.52298L7.99651 1.96975C6.81484 1.52343 5.52046 2.27074 5.31615 3.51726L5.06292 5.06232L3.51785 5.31556C2.27134 5.51986 1.52402 6.81424 1.97035 7.99591L2.52357 9.4606L1.31212 10.4524C0.334759 11.2526 0.334762 12.7473 1.31213 13.5475L2.52357 14.5393L1.97035 16.004C1.52402 17.1856 2.27133 18.48 3.51785 18.6843L5.06292 18.9376L5.31615 20.4826C5.52046 21.7291 6.81484 22.4765 7.99651 22.0301L9.46119 21.4769L10.453 22.6884C11.2532 23.6657 12.7479 23.6657 13.548 22.6884L14.5399 21.4769L16.0046 22.0301C17.1862 22.4765 18.4806 21.7291 18.6849 20.4826L18.9382 18.9376L20.4832 18.6843C21.7297 18.48 22.4771 17.1856 22.0307 16.004L21.4775 14.5393L22.689 13.5474C23.6663 12.7473 23.6663 11.2526 22.689 10.4524L21.4775 9.4606L22.0307 7.99591C22.4771 6.81425 21.7297 5.51986 20.4832 5.31556L18.9382 5.06232L18.6849 3.51726C18.4806 2.27074 17.1862 1.52342 16.0046 1.96975L14.5399 2.52298L13.548 1.31153Z"></path><path fill="#90CAEA" fill-rule="evenodd" d="M18.2072 9.20711L11.2072 16.2071C11.0196 16.3946 10.7653 16.5 10.5001 16.5C10.2349 16.5 9.9805 16.3946 9.79297 16.2071L5.79297 12.2071L7.20718 10.7929L10.5001 14.0858L16.793 7.79289L18.2072 9.20711Z" clip-rule="evenodd"></path></g><defs><clipPath id="clip0_343_1428"><rect width="24" height="24" fill="#fff"></rect></clipPath></defs></svg>